<svg width="50" height="50" viewBox="0 0 50 50" fill="none" xmlns="http://www.w3.org/2000/svg">
<circle cx="25" cy="25" r="25" fill="#000000"/>
<path d="M25 40.039C24.5167 40.0431 24.0416 39.9133 23.6275 39.6639L18.4531 36.6377C16.516 35.5544 14.8992 33.9788 13.7661 32.0704C12.633 30.1619 12.0238 27.9882 12 25.7689V17.5C12.0002 16.9428 12.1711 16.399 12.4896 15.9418C12.8081 15.4846 13.259 15.1359 13.7816 14.9426L24.0623 11.1662C24.6678 10.9446 25.3322 10.9446 25.9377 11.1662L36.2184 14.9426C36.741 15.1359 37.1919 15.4846 37.5104 15.9418C37.8289 16.399 37.9998 16.9428 38 17.5V25.7689C37.9762 27.9882 37.367 30.1619 36.2339 32.0704C35.1008 33.9788 33.484 35.5544 31.5469 36.6377L26.3725 39.6639C25.9584 39.9133 25.4833 40.0431 25 40.039ZM25 13.1354C24.9324 13.1231 24.8631 13.1231 24.7954 13.1354L14.5148 16.9289C14.399 16.9717 14.2996 17.05 14.2307 17.1525C14.1619 17.255 14.127 17.3766 14.1311 17.5V25.7689C14.1559 27.6155 14.6679 29.4229 15.6154 31.0081C16.563 32.5933 17.9124 33.9002 19.5272 34.7964L24.7016 37.8312C24.7931 37.8811 24.8957 37.9073 25 37.9073C25.1043 37.9073 25.2069 37.8811 25.2984 37.8312L30.4728 34.7964C32.0876 33.9002 33.437 32.5933 34.3846 31.0081C35.3321 29.4229 35.8441 27.6155 35.8689 25.7689V17.5C35.8694 17.3795 35.8329 17.2617 35.7643 17.1626C35.6957 17.0635 35.5983 16.9878 35.4852 16.9459L25.2046 13.1695C25.139 13.1458 25.0697 13.1342 25 13.1354V13.1354Z" fill="white"/>
<path d="M24.0624 29.7328C23.8108 29.7311 23.5673 29.6439 23.3719 29.4855L19.7319 26.4167C19.5148 26.2347 19.379 25.9739 19.3542 25.6918C19.3294 25.4096 19.4177 25.1291 19.5997 24.9121C19.7817 24.6951 20.0425 24.5592 20.3247 24.5344C20.6068 24.5096 20.8873 24.598 21.1043 24.78L23.9601 27.1839L28.8361 21.8134C29.026 21.6032 29.2917 21.4769 29.5747 21.4626C29.8576 21.4482 30.1347 21.5468 30.345 21.7367C30.5552 21.9266 30.6815 22.1923 30.6958 22.4752C30.7102 22.7582 30.6116 23.0353 30.4217 23.2455L24.8978 29.3833C24.792 29.4984 24.6626 29.5892 24.5184 29.6495C24.3742 29.7099 24.2186 29.7383 24.0624 29.7328V29.7328Z" fill="white"/>
</svg>
